<?xml version="1.0" ?><!DOCTYPE svg  PUBLIC '-//W3C//DTD SVG 1.1//EN'  'http://www.w3.org/Graphics/SVG/1.1/DTD/svg11.dtd'><svg enable-background="new 0 0 512 512" height="512px" id="Layer_1" version="1.1" viewBox="0 0 512 512" width="512px" xml:space="preserve" xmlns="http://www.w3.org/2000/svg" xmlns:xlink="http://www.w3.org/1999/xlink"><g><path clip-rule="evenodd" d="M474.251,233.709l-37.621-33.885c-53.505-48.167-106.993-96.329-160.219-144.72   c-7.43-6.797-14.4-10.101-21.295-10.101c-6.547,0-13.01,2.977-19.752,9.091c-9.608,8.591-18.997,17.394-29.259,27.011   l-16.232,15.164l-0.518-3.07c-8.947-52.725-9.414-53.226-49.986-53.226c-15.791,0.038-22.949,0.636-26.426,4.232   c-3.783,3.931-3.681,12.323-3.121,29.424c0.187,5.529,0.543,11.147,0.916,16.894c2.392,37.061,4.859,75.377-43.015,94.327   c-0.967,0.361-1.866,1.459-2.909,2.735c-0.5,0.61-0.992,1.213-1.518,1.73c-40.343,40.432-40.445,41.267-10.661,89.006l0.603,0.975   c5.215,8.362,10.329,12.434,15.63,12.434c4.478,0,9.439-2.833,15.181-8.634c3.91-3.969,7.48-8.498,11.025-12.993   c6.641-8.417,13.501-17.122,23.212-22.605c45.203-25.425,86.08-57.546,122.14-85.885c10.644-8.332,18.166-13.153,25.154-13.153   c8.022,0,14.765,6.17,25.154,18.323c31.557,36.998,67.677,73.176,113.685,113.846l3.35,3.062   c6.302,5.801,12.814,11.813,20.032,11.813c2.942,0,5.834-0.983,8.837-3.011l6.581-4.393c15.554-10.279,31.633-20.914,37.875-40.008   C482.52,243.831,480.34,239.264,474.251,233.709z M450.029,253.528c-5.394,7.434-12.848,12.929-22.143,16.339l-0.51,0.593   l-3.909-2.917c-1.892-1.391-3.901-2.862-5.767-4.448c-41.887-36.073-74.071-67.99-101.286-100.434   c-5.69-6.802-12.416-13.175-18.336-18.798c-9.303-8.824-18.912-17.954-26.121-29.284c-2.171-3.435-6.31-5.928-9.846-5.928   c-2.069,0-4.817,0.86-6.2,4.957c-6.394,19.209-21.499,28.601-36.103,37.688c-7.098,4.414-13.798,8.582-19.684,13.841   c-26.443,23.517-55.667,43.604-86.869,59.709c-9.736,5.067-17.759,12.31-26.791,21.626c-1.069,1.098-2.137,2.854-3.18,4.571   c-2.451,3.995-5.233,8.523-9.745,8.523c-2.502,0-5.055-1.42-7.811-4.346c-5.979-6.365-17.098-18.216-2.85-34.428   c18.479-20.99,41.496-35.98,63.767-50.486c7.387-4.805,14.757-9.604,21.965-14.621c35.908-24.921,62.961-47.798,85.147-71.993   c7.997-8.744,14.213-12.471,20.795-12.471c6.03,0,12.263,3.256,19.641,10.257c36.018,33.982,73.113,67.809,108.986,100.523   l1.374,1.255c19.421,17.712,38.843,35.424,58.195,53.246c0.695,0.657,1.552,1.314,2.596,2.112   C449.274,241.621,455.203,246.167,450.029,253.528z M142.516,62.172c2.417-0.318,4.894-0.632,7.319-0.632   c5.004,0,8.702,1.37,11.645,4.313c5.512,5.458,4.97,20.167,4.478,26.235c-1.111,13.527-5.258,29.322-12.009,34.114   c-0.967,0.679-1.951,1.467-3.206,2.48c-3.418,2.777-7.302,5.928-11.695,5.928c-1.772,0-3.511-0.522-5.173-1.556   c-4.987-3.112-4.02-9.028-3.164-14.328c0.271-1.625,0.526-3.228,0.585-4.656c0.067-3.384,0.441-6.785,0.636-8.205h0.127v-0.869   c0-12.582,0-20.405-0.085-28.173l-0.017-1.802c-0.119-4.859-0.28-11.517,8.083-12.547L142.516,62.172z" fill-rule="evenodd"/><path clip-rule="evenodd" d="M409.567,310.719c0.552-4.529-0.424-8.659-2.688-11.313   c-1.916-2.265-4.698-3.393-8.786-3.554c-8.251,0-9.1,5.818-9.447,14.697c-0.39,9.635-1.204,19.531-1.925,28.25   c-2.062,24.95-4.182,50.731,1.611,76.123c1.807,7.87,1.323,13.442-1.526,17.513c-3.087,4.401-8.922,6.979-18.353,8.15   c-47.713,5.86-96.316,6.36-143.309,6.835c-17.674,0.179-35.339,0.356-52.997,0.814c-4.639,0.119-8.676,0.203-12.212,0.203   c-25.909,0-25.993-5.885-26.435-38.587c-0.034-2.723,0.017-5.444,0.085-8.77c0.06-4.07,0.127-8.142-0.127-12.195   c-1.73-28.461-4.097-67.447-6.912-104.873c-0.695-8.938-4.079-13.476-10.05-13.476c-0.662,0-1.374,0.051-2.12,0.16   c-8.031,1.196-9.167,7.472-8.396,16.521c4.224,49.943,6.403,103.457,6.649,163.603c0.051,14.205,6.513,20.54,20.956,20.54h0.5   h0.008c13.451-0.136,26.875-0.17,40.318-0.17l55.507,0.077c32.074-0.976,64.598-3.223,96.214-5.394   c21.566-1.493,43.116-2.978,64.691-4.088c13.12-0.679,19.633-6.717,19.354-17.963c-0.306-12.025-0.891-24.034-1.476-36.061   C407.15,376.046,405.539,343.242,409.567,310.719z" fill-rule="evenodd"/><path clip-rule="evenodd" d="M200.881,374.655c3.299,3.409,8.209,5.071,15.011,5.071   c1.068,0,2.18-0.051,3.333-0.136c11.593-0.831,23.178-1.95,34.898-3.078c15.231-1.468,30.989-2.978,46.559-3.808   c16.207-0.925,23.679-8.905,23.509-25.104c-0.161-16.537-1.052-34.025-2.714-53.48c-3.748-42.068-7.98-46.16-50.393-48.662   c-1.764-0.089-3.52-0.114-5.309-0.114l-10.737,0.114l-8.422,0.564c-6.521,0.419-13.043,0.839-19.514,1.552   c-26.994,2.917-34.44,11.665-33.21,38.999l0.458,9.125c0.976,19.209,1.985,39.079,1.247,58.576   C195.241,363.936,196.971,370.593,200.881,374.655z M218.47,340.063l-0.365-0.823c-1.068-7.124-1.739-13.849,1.764-17.911   c2.095-2.442,5.402-3.621,10.101-3.621l1.17,0.025c4.715,0.144,8.235,1.51,10.457,4.07c3.341,3.867,3.112,9.719,2.646,13.799   c-0.169,1.552-0.161,3.197-0.144,5.283c0.076,7.141,0.169,16.046-13.247,16.885c-0.695,0.043-1.357,0.06-1.967,0.06   c-4.207,0-7.116-0.967-8.879-2.968c-2.468-2.799-1.959-6.836-1.543-10.101C218.843,341.852,218.843,340.664,218.47,340.063z    M230.598,269.002c3.537,0,6.276,0.958,8.142,2.85c2.112,2.137,3.104,5.359,3.053,9.871c0,6.174-1.221,14.384-11.746,14.384   c-0.653,0-1.332-0.034-2.052-0.094l-1.526,0.042c-10.669,0-10.975-9.184-11.187-15.273c-0.509-10.787,7.667-11.322,13.646-11.712   C229.504,269.019,230.072,269.002,230.598,269.002z M277.632,320.819c1.526,0,3.3,0.212,5.471,0.661   c6.326,0.051,12.865,0.102,16.767,4.147c2.476,2.569,3.604,6.403,3.442,11.703c-0.373,14.257-9.753,14.646-17.377,14.952   c-2.069,0.084-4.13,0.169-6.038,0.525c-1.484,0.288-2.815,0.407-3.978,0.407c-2.942,0-5.25-0.831-6.869-2.46   c-3.146-3.188-3.096-8.819-3.062-13.84C266.106,330.004,267.43,320.819,277.632,320.819z M299.317,286.718   c0.068,4.859-0.933,8.269-3.07,10.423c-2.586,2.629-6.471,2.935-9.167,2.935c-1.68,0-3.512-0.136-5.471-0.322h-0.806   c-4.291,0-10.439-0.492-14.281-4.665c-2.893-3.129-4.028-7.776-3.494-14.196c0.585-6.395,2.468-12.925,11.983-12.925   c0.916,0,1.917,0.051,2.985,0.17C287.852,269.239,299.021,270.478,299.317,286.718z" fill-rule="evenodd"/></g></svg>